#!OML:ASF X:\für Bonn\!DataBase\2005_08_12_Daniel\c3d\Daniel.ASF
:FULLY-SPECIFIED
:DEGREES
177
root -4.16143 17.254 -1.07788 343.073 -89.0353 -351.571
lowerback 20.4624 -2.46683 2.7869
upperback -0.77122 -2.88502 -1.91381
thorax -12.6537 -1.62367 -2.83701
lowerneck 4.24457 3.37033 -2.4281
upperneck 2.55135 4.3382 0.516695
head 0.0194258 2.12727 0.496927
rclavicle 2.32951e-015 -1.70955e-014
rhumerus 73.7628 -28.8739 -172.827
rradius 9.08272
rwrist 139.73
rhand -22.4436 13.1939
rfingers 7.12502
rthumb 3.98039 -16.7486
lclavicle 2.32951e-015 -1.70955e-014
lhumerus 57.8269 14.2215 112.506
lradius 9.997
lwrist -87.0701
lhand -15.8177 2.56952
lfingers 7.12502
lthumb 10.376 32.2935
rfemur 4.45155 11.0806 19.0267
rtibia 22.8143
rfoot 332.317 -18.0682
rtoes -11.3953
lfemur -184.003 197.733 -198.765
ltibia 34.4678
lfoot -28.1401 11.7696
ltoes -1.3475
178
root -4.17769 17.2592 -1.07612 340.134 -89.0388 -348.508
lowerback 20.0461 -2.45052 2.72193
upperback -0.787859 -2.88891 -1.93172
thorax -12.4318 -1.61993 -2.82877
lowerneck 4.19792 3.34634 -2.49589
upperneck 2.62103 4.30403 0.544565
head 0.0464518 2.1088 0.518514
rclavicle 9.91439e-015 -7.15625e-015
rhumerus 73.6178 -28.9434 -172.622
rradius 9.06893
rwrist 139.636
rhand -22.4262 13.1468
rfingers 7.12502
rthumb 3.99717 -16.7954
lclavicle 9.91439e-015 -7.15625e-015
lhumerus 57.9908 14.1695 112.63
lradius 9.94387
lwrist -87.2023
lhand -15.7869 2.75521
lfingers 7.12502
lthumb 10.4057 32.4777
rfemur 5.05183 13.3351 19.7262
rtibia 22.1098
rfoot 331.02 -20.1568
rtoes -11.4492
lfemur -183.722 199.115 -199.214
ltibia 34.1849
lfoot -28.7439 13.0444
ltoes -1.27859
179
root -4.19273 17.2616 -1.07376 336.181 -89.0417 -344.439
lowerback 19.6486 -2.41753 2.65802
upperback -0.79442 -2.87113 -1.96153
thorax -12.2079 -1.60677 -2.84072
lowerneck 4.11679 3.3156 -2.5472
upperneck 2.713 4.26261 0.601466
head 0.0856537 2.08674 0.547215
rclavicle 2.19533e-014 -5.1684e-015
rhumerus 73.5586 -28.9609 -172.443
rradius 9.01865
rwrist 139.544
rhand -22.404 13.0668
rfingers 7.12502
rthumb 4.01864 -16.8751
lclavicle 2.19533e-014 -5.1684e-015
lhumerus 58.1167 14.0822 112.759
lradius 9.86709
lwrist -87.4189
lhand -15.7412 3.0044
lfingers 7.12502
lthumb 10.4498 32.7247
rfemur 5.57555 15.3677 20.3484
rtibia 21.5482
rfoot 329.84 -22.0412
rtoes -11.4892
lfemur -183.473 200.404 -199.662
ltibia 33.9811
lfoot -29.3721 14.201
ltoes -1.2398
180
root -4.20679 17.2616 -1.07136 333.213 -89.0393 -341.365
lowerback 19.2813 -2.39527 2.61629
upperback -0.796977 -2.86031 -1.98371
thorax -11.9982 -1.59805 -2.85381
lowerneck 4.03485 3.28191 -2.58623
upperneck 2.79262 4.21818 0.624853
head 0.122415 2.06349 0.5636
rclavicle 2.75441e-014 -1.47101e-014
rhumerus 73.4738 -28.9131 -172.27
rradius 8.9761
rwrist 139.393
rhand -22.3501 12.8851
rfingers 7.12502
rthumb 4.0707 -17.0558
lclavicle 2.75441e-014 -1.47101e-014
lhumerus 58.2138 14.036 112.874
lradius 9.77313
lwrist -87.6227
lhand -15.6562 3.15632
lfingers 7.12502
lthumb 10.5318 32.8725
rfemur 6.04739 17.2585 20.9421
rtibia 21.106
rfoot 328.611 -23.6739
rtoes -11.3819
lfemur -183.271 201.596 -200.073
ltibia 33.8512
lfoot -29.9728 15.2869
ltoes -1.2649
181
root -4.21954 17.2611 -1.06816 329.608 -89.0268 -337.662
lowerback 18.9159 -2.37171 2.58048
upperback -0.78142 -2.8491 -2.02866
thorax -11.7706 -1.59027 -2.89567
lowerneck 3.97444 3.24153 -2.57569
upperneck 2.83753 4.1666 0.633793
head 0.146667 2.03753 0.566772
rclavicle 1.36664e-015 -9.93923e-015
rhumerus 73.4583 -28.8222 -172.142
rradius 8.88382
rwrist 139.184
rhand -22.3436 12.7622
rfingers 7.12502
rthumb 4.07694 -17.1785
lclavicle 1.36664e-015 -9.93923e-015
lhumerus 58.3054 13.9658 112.966
lradius 9.62706
lwrist -87.8511
lhand -15.5863 3.35167
lfingers 7.12502
lthumb 10.5992 33.0644
rfemur 6.47209 19.0144 21.478
rtibia 20.7593
rfoot 327.442 -25.0974
rtoes -11.2906
lfemur -183.109 202.611 -200.452
ltibia 33.772
lfoot -30.5308 16.2043
ltoes -1.28842
182
root -4.23114 17.2573 -1.06494 327.003 -89.0408 -335.001
lowerback 18.5876 -2.35069 2.54702
upperback -0.755066 -2.83585 -2.04243
thorax -11.5502 -1.58028 -2.90379
lowerneck 3.98628 3.20913 -2.5804
upperneck 2.84609 4.12266 0.633863
head 0.147914 2.01533 0.568008
rclavicle 4.63417e-015 1.47101e-014
rhumerus 73.4209 -28.7095 -171.974
rradius 8.73037
rwrist 138.886
rhand -22.3361 12.6191
rfingers 7.12502
rthumb 4.08417 -17.3214
lclavicle 4.63417e-015 1.47101e-014
lhumerus 58.3916 13.9556 113.07
lradius 9.48047
lwrist -88.074
lhand -15.4676 3.50112
lfingers 7.12502
lthumb 10.7138 33.2079
rfemur 6.9065 20.754 22.0519
rtibia 20.4893
rfoot 326.202 -26.3603
rtoes -10.9806
lfemur -182.946 203.495 -200.778
ltibia 33.7418
lfoot -31.0598 16.9641
ltoes -1.26545
183
root -4.24026 17.2554 -1.06145 323.967 -89.0159 -331.896
lowerback 18.2719 -2.33928 2.50871
upperback -0.724652 -2.83841 -2.07587
thorax -11.3349 -1.57829 -2.92604
lowerneck 4.01839 3.17905 -2.55239
upperneck 2.81095 4.0831 0.605221
head 0.13387 1.99615 0.554245
rclavicle -6.62201e-015 7.95139e-016
rhumerus 73.3471 -28.6421 -171.807
rradius 8.62995
rwrist 138.555
rhand -22.3698 12.4875
rfingers 7.12502
rthumb 4.05168 -17.4538
lclavicle -6.62201e-015 7.95139e-016
lhumerus 58.4215 13.9583 113.139
lradius 9.40509
lwrist -88.2253
lhand -15.4068 3.58706
lfingers 7.12502
lthumb 10.7723 33.2908
rfemur 7.2628 22.2867 22.5327
rtibia 20.2941
rfoot 325.045 -27.4142
rtoes -10.6615
lfemur -182.867 204.14 -201.04
ltibia 33.7377
lfoot -31.4654 17.4846
ltoes -1.23227
184
root -4.24759 17.2513 -1.05755 321.244 -89.0054 -329.135
lowerback 18.0194 -2.32108 2.47471
upperback -0.691526 -2.82767 -2.09264
thorax -11.1511 -1.56992 -2.93452
lowerneck 4.0285 3.14322 -2.57025
upperneck 2.80302 4.03432 0.608336
head 0.130102 1.97165 0.558512
rclavicle -2.29721e-014 1.59028e-015
rhumerus 73.2795 -28.6012 -171.603
rradius 8.50569
rwrist 138.223
rhand -22.4256 12.3295
rfingers 7.12502
rthumb 3.99777 -17.6127
lclavicle -2.29721e-014 1.59028e-015
lhumerus 58.4268 13.9717 113.231
lradius 9.33532
lwrist -88.3446
lhand -15.3418 3.66811
lfingers 7.12502
lthumb 10.8351 33.3686
rfemur 7.59933 23.6538 22.9741
rtibia 20.1519
rfoot 323.947 -28.2895
rtoes -10.3529
lfemur -182.801 204.587 -201.248
ltibia 33.765
lfoot -31.7885 17.8458
ltoes -1.22205
185
root -4.25326 17.2468 -1.05359 318.394 -88.9986 -326.246
lowerback 17.7872 -2.30768 2.45113
upperback -0.65171 -2.82239 -2.12396
thorax -10.9735 -1.56535 -2.96295
lowerneck 4.06506 3.1039 -2.52072
upperneck 2.75021 3.98349 0.568336
head 0.110804 1.94728 0.537679
rclavicle 1.64122e-014 3.57812e-015
rhumerus 73.154 -28.6168 -171.402
rradius 8.4582
rwrist 137.856
rhand -22.45 12.3128
rfingers 7.12502
rthumb 3.97425 -17.6298
lclavicle 1.64122e-014 3.57812e-015
lhumerus 58.4505 13.9629 113.304
lradius 9.24074
lwrist -88.4248
lhand -15.3311 3.69708
lfingers 7.12502
lthumb 10.8454 33.397
rfemur 7.87683 24.892 23.3619
rtibia 20.0682
rfoot 322.863 -28.9674
rtoes -9.93433
lfemur -182.78 204.881 -201.394
ltibia 33.8029
lfoot -32.0523 18.0243
ltoes -1.13826
186
root -4.25693 17.2434 -1.05014 315.55 -88.9886 -323.383
lowerback 17.6288 -2.29011 2.43009
upperback -0.617478 -2.81001 -2.15715
thorax -10.8443 -1.55816 -2.99491
lowerneck 4.06762 3.05622 -2.51166
upperneck 2.72164 3.9207 0.553975
head 0.103123 1.91638 0.532307
rclavicle 2.36305e-014 -2.38542e-015
rhumerus 73.044 -28.6503 -171.199
rradius 8.41197
rwrist 137.549
rhand -22.3879 12.2729
rfingers 7.12502
rthumb 4.03421 -17.6687
lclavicle 2.36305e-014 -2.38542e-015
lhumerus 58.4511 13.9687 113.362
lradius 9.10589
lwrist -88.4386
lhand -15.4173 3.72157
lfingers 7.12502
lthumb 10.7622 33.4259
rfemur 8.11734 25.9232 23.6863
rtibia 20.0169
rfoot 321.936 -29.5105
rtoes -9.64265
lfemur -182.785 204.964 -201.491
ltibia 33.8509
lfoot -32.1572 18.137
ltoes -1.16631
187
root -4.25839 17.2401 -1.04609 313.44 -88.9861 -321.262
lowerback 17.51 -2.28075 2.40662
upperback -0.567822 -2.80647 -2.17327
thorax -10.7201 -1.55427 -3.00337
lowerneck 3.9728 3.02255 -2.49874
upperneck 2.72616 3.88012 0.545484
head 0.120902 1.89669 0.529664
rclavicle -1.41261e-014 4.37326e-015
rhumerus 72.9074 -28.6964 -170.959
rradius 8.38215
rwrist 137.329
rhand -22.2872 12.3008
rfingers 7.12502
rthumb 4.13148 -17.6389
lclavicle -1.41261e-014 4.37326e-015
lhumerus 58.4711 13.9848 113.437
lradius 9.00899
lwrist -88.4472
lhand -15.4548 3.74585
lfingers 7.12502
lthumb 10.7261 33.452
rfemur 8.3018 26.7174 23.9358
rtibia 19.9897
rfoot 321.216 -29.8962
rtoes -9.39913
lfemur -182.82 204.868 -201.511
ltibia 33.8965
lfoot -32.1754 18.0456
ltoes -1.19671
